<?xml version="1.0" encoding="UTF-8" standalone="no"?>
<!-- Created with Inkscape (http://www.inkscape.org/) -->

<svg
   width="1024"
   height="216"
   viewBox="0 0 270.93333 57.149999"
   version="1.1"
   id="svg323"
   xmlns="http://www.w3.org/2000/svg"
   xmlns:svg="http://www.w3.org/2000/svg">
  <defs
     id="defs320" />
  <g
     id="layer1">
    <path
       id="path316"
       style="fill:#000000;stroke-width:0.113195"
       d="M 183.94484 0 L 183.92107 0.025321452 L 183.89782 0.050642904 L 175.83526 20.992 L 167.77322 41.932841 L 167.71793 42.131278 L 167.66212 42.329199 L 170.15189 42.329199 L 172.64218 42.329199 L 174.55265 37.207031 L 176.46365 32.084863 L 183.91539 32.084863 L 191.36713 32.084863 L 193.25797 37.178609 L 195.1483 42.272355 L 197.66184 42.302844 L 200.17538 42.333333 L 200.17538 42.254268 L 200.17538 42.175203 L 192.06011 21.087602 L 183.94484 0 z M 0 1.4138672 L 0 21.845695 L 0 42.277523 L 2.4902873 42.277523 L 4.9805745 42.277523 L 4.9805745 32.372701 L 4.9805745 22.468396 L 13.074137 22.468396 L 21.1677 22.468396 L 21.1677 32.372701 L 21.1677 42.277523 L 23.657987 42.277523 L 26.148275 42.277523 L 26.148275 21.845695 L 26.148275 1.4138672 L 23.657987 1.4138672 L 21.1677 1.4138672 L 21.1677 9.7337728 L 21.1677 18.053678 L 13.074137 18.053678 L 4.9805745 18.053678 L 4.9805745 9.7337728 L 4.9805745 1.4138672 L 2.4902873 1.4138672 L 0 1.4138672 z M 252.22181 1.4386719 L 251.28337 1.4877645 L 250.34441 1.5373739 L 249.71912 1.9156453 L 249.09436 2.2944336 L 248.67474 2.8453044 L 248.25461 3.3956584 L 248.10424 3.8173381 L 247.95386 4.2390177 L 247.94869 4.9831584 L 247.94352 5.7267822 L 248.12387 6.2559489 L 248.30422 6.7845988 L 248.80807 7.3452881 L 249.31191 7.9054606 L 249.71551 8.1550578 L 250.1191 8.4041382 L 250.47463 8.4956055 L 250.83017 8.5870728 L 251.68335 8.5555501 L 252.53652 8.5240275 L 253.13855 8.1963989 L 253.74058 7.8687703 L 254.17777 7.3721598 L 254.61443 6.8760661 L 254.85576 6.2368286 L 255.09709 5.5975911 L 255.048 4.79764 L 254.99839 3.9976888 L 254.67593 3.4049601 L 254.35347 2.8122314 L 253.90698 2.4086385 L 253.46101 2.0055623 L 252.84141 1.7223755 L 252.22181 1.4386719 z M 183.93244 12.255066 L 186.75346 19.793107 L 189.57396 27.330632 L 189.62305 27.472225 L 189.67266 27.613818 L 183.93658 27.613818 L 178.20049 27.613818 L 178.27646 27.37404 L 178.35242 27.134261 L 181.14243 19.694405 L 183.93244 12.255066 z M 149.19089 16.083256 L 147.99303 16.217098 L 146.79466 16.351457 L 145.84846 16.677535 L 144.90227 17.003613 L 144.07544 17.519344 L 143.2481 18.035592 L 142.5484 18.669661 L 141.84871 19.303731 L 141.33142 19.991545 L 140.81466 20.679358 L 140.81466 18.744076 L 140.81466 16.808276 L 138.55072 16.808276 L 136.28677 16.808276 L 136.28677 29.5429 L 136.28677 42.277523 L 138.54555 42.277523 L 140.80433 42.277523 L 140.84102 34.381881 L 140.87771 26.486755 L 141.13144 25.580868 L 141.38569 24.675496 L 141.7066 23.996468 L 142.02699 23.316923 L 142.46779 22.735563 L 142.90859 22.154203 L 143.47445 21.683431 L 144.04082 21.212659 L 144.75912 20.866943 L 145.47794 20.521745 L 146.40037 20.355863 L 147.32331 20.189465 L 148.20852 20.261812 L 149.09374 20.334676 L 149.68027 20.508309 L 150.26628 20.682458 L 150.82284 20.964095 L 151.37939 21.245732 L 151.96127 21.828642 L 152.54366 22.411552 L 152.85475 23.048722 L 153.16636 23.68641 L 153.3524 24.294124 L 153.53843 24.901839 L 153.57667 33.589681 L 153.61491 42.277523 L 155.87421 42.277523 L 158.1335 42.277523 L 158.1335 33.186088 L 158.1335 24.094653 L 158.01464 23.42286 L 157.89527 22.751066 L 157.65911 22.015194 L 157.42243 21.279838 L 157.10462 20.643701 L 156.78681 20.007564 L 156.21785 19.298564 L 155.6489 18.589563 L 155.22153 18.224211 L 154.79417 17.858341 L 154.09809 17.408757 L 153.40252 16.959172 L 152.47596 16.653247 L 151.54992 16.346806 L 150.37067 16.215031 L 149.19089 16.083256 z M 112.1575 16.085323 L 110.82889 16.218132 L 109.50029 16.35094 L 108.51379 16.637227 L 107.52729 16.922998 L 106.78005 17.261995 L 106.03229 17.600993 L 105.07886 18.235063 L 104.12543 18.869649 L 103.18182 19.812744 L 102.23872 20.756356 L 101.61654 21.697384 L 100.99487 22.637895 L 100.63623 23.355164 L 100.2776 24.071916 L 99.948938 25.078056 L 99.620276 26.084196 L 99.431657 27.360604 L 99.243038 28.637528 L 99.310217 30.165601 L 99.37688 31.693673 L 99.550513 32.485872 L 99.724146 33.278072 L 99.956689 34.013944 L 100.18923 34.749817 L 100.71065 35.810734 L 101.23155 36.871651 L 101.91006 37.792008 L 102.58909 38.711849 L 103.39266 39.486995 L 104.19622 40.262659 L 105.114 40.873474 L 106.03229 41.484806 L 106.78573 41.826388 L 107.53917 42.167969 L 108.52774 42.449089 L 109.51631 42.729692 L 110.30851 42.82891 L 111.10071 42.927612 L 111.91358 42.942082 L 112.72594 42.956551 L 113.61115 42.836662 L 114.49689 42.716772 L 115.58984 42.345736 L 116.68332 41.975216 L 117.56078 41.475505 L 118.43877 40.975793 L 119.3152 40.153105 L 120.19163 39.330933 L 120.57042 38.740788 L 120.94869 38.150126 L 120.9797 40.213566 L 121.0107 42.277523 L 123.27206 42.277523 L 125.53342 42.277523 L 125.53342 29.5429 L 125.53342 16.808276 L 123.27206 16.808276 L 121.0107 16.808276 L 120.9797 18.871716 L 120.94869 20.935673 L 120.57042 20.345011 L 120.19163 19.754867 L 119.3152 18.932694 L 118.43877 18.110006 L 117.56078 17.610295 L 116.68332 17.110583 L 115.58519 16.734896 L 114.48759 16.358691 L 113.3228 16.222266 L 112.1575 16.085323 z M 218.11692 16.181441 L 217.20845 16.341121 L 216.29998 16.501318 L 215.5672 16.746265 L 214.83392 16.991211 L 214.04172 17.391187 L 213.24952 17.790645 L 212.55395 18.284672 L 211.8589 18.778699 L 211.24189 19.48925 L 210.62487 20.199284 L 210.32411 20.650419 L 210.02336 21.101038 L 210.02336 18.980754 L 210.02336 16.86047 L 207.75941 16.86047 L 205.49547 16.86047 L 205.49547 36.499581 L 205.49495 56.139209 L 207.75889 56.139209 L 210.02284 56.139209 L 210.02284 47.113403 L 210.02284 38.087598 L 210.43935 38.708748 L 210.85586 39.329382 L 211.54316 40.015129 L 212.22994 40.700875 L 212.73947 41.04814 L 213.249 41.395406 L 214.0412 41.796932 L 214.8334 42.198458 L 215.56669 42.443404 L 216.29946 42.68835 L 217.20793 42.848031 L 218.1164 43.008228 L 218.9086 43.00616 L 219.7008 43.004093 L 220.88936 42.84338 L 222.07792 42.682666 L 222.98381 42.385527 L 223.88918 42.08787 L 224.68086 41.685311 L 225.47254 41.282235 L 226.20893 40.76237 L 226.94532 40.242505 L 227.94164 39.243083 L 228.93796 38.24366 L 229.53379 37.315035 L 230.12962 36.38641 L 230.49911 35.59421 L 230.86911 34.801493 L 231.14145 33.944698 L 231.41378 33.087386 L 231.59672 32.133439 L 231.77913 31.179492 L 231.78327 29.65142 L 231.7874 28.123348 L 231.60447 27.089303 L 231.42153 26.05474 L 231.12284 25.108028 L 230.82467 24.161316 L 230.43761 23.392371 L 230.05107 22.623425 L 229.56118 21.864299 L 229.07077 21.105172 L 228.14163 20.116602 L 227.21197 19.127515 L 226.34329 18.51825 L 225.47461 17.908984 L 224.79506 17.563786 L 224.11604 17.219104 L 223.55018 16.988627 L 222.98432 16.75815 L 222.4934 16.63206 L 222.00195 16.506486 L 221.0785 16.344222 L 220.15452 16.181441 L 219.13546 16.181441 L 218.11692 16.181441 z M 35.090365 16.808276 L 35.090365 24.453805 L 35.090365 32.098816 L 35.211287 33.184021 L 35.33221 34.269226 L 35.608679 35.222139 L 35.884631 36.17557 L 36.239132 36.877336 L 36.593115 37.579618 L 37.022546 38.213171 L 37.451978 38.846208 L 38.030754 39.479244 L 38.609013 40.11228 L 39.379508 40.683305 L 40.149487 41.254329 L 41.04659 41.703398 L 41.943176 42.151949 L 42.959652 42.44082 L 43.976127 42.729692 L 44.768327 42.82891 L 44.768844 42.82891 L 45.561043 42.927612 L 46.410087 42.941565 L 47.258614 42.955518 L 48.277673 42.830977 L 49.296216 42.70592 L 50.252747 42.428935 L 51.209277 42.151949 L 52.120333 41.693579 L 53.031905 41.235209 L 53.778113 40.683305 L 54.52432 40.131401 L 55.027649 39.591382 L 55.531494 39.051363 L 55.998132 38.428662 L 56.465287 37.805961 L 56.859062 37.013761 L 57.252836 36.221045 L 57.444039 35.655188 L 57.635758 35.089331 L 57.813525 34.297131 L 57.991292 33.504415 L 58.036768 25.156604 L 58.082243 16.808276 L 55.759387 16.808276 L 53.436532 16.808276 L 53.398808 24.986589 L 53.361084 33.164901 L 53.159029 33.843929 L 52.956974 34.523474 L 52.601957 35.259347 L 52.24694 35.994702 L 51.5059 36.743494 L 50.765377 37.492285 L 50.081698 37.837484 L 49.398018 38.182682 L 48.724674 38.387838 L 48.051331 38.592476 L 46.579586 38.594543 L 45.108358 38.596094 L 44.315641 38.34598 L 43.523442 38.096383 L 42.802039 37.667985 L 42.080636 37.240104 L 41.530798 36.639107 L 40.980961 36.03811 L 40.529309 35.111035 L 40.078174 34.18396 L 39.905058 33.311145 L 39.731425 32.438847 L 39.731425 24.62382 L 39.731425 16.808276 L 37.411153 16.808276 L 35.090365 16.808276 z M 66.558728 16.808276 L 66.558728 29.5429 L 66.558728 42.277523 L 68.708984 42.277523 L 70.858724 42.277523 L 70.887663 31.552079 L 70.916602 20.826636 L 74.425431 20.826636 L 77.934778 20.826636 L 77.963717 31.552079 L 77.992655 42.277523 L 80.142395 42.277523 L 82.292651 42.277523 L 82.292651 31.523657 L 82.292651 20.770308 L 85.801998 20.770308 L 89.310828 20.770308 L 89.310828 31.523657 L 89.310828 42.277523 L 91.461601 42.277523 L 93.612374 42.277523 L 93.612374 29.5429 L 93.612374 16.808276 L 80.085551 16.808276 L 66.558728 16.808276 z M 239.45412 16.86047 L 239.45412 18.841227 L 239.45412 20.821985 L 244.60419 20.821985 L 249.75478 20.821985 L 249.75478 29.538249 L 249.75478 38.253996 L 244.60419 38.253996 L 239.45412 38.253996 L 239.45412 40.291597 L 239.45412 42.329199 L 252.01873 42.329199 L 264.58333 42.329199 L 264.58333 40.291597 L 264.58333 38.253996 L 259.43274 38.253996 L 254.28267 38.253996 L 254.28267 27.556974 L 254.28267 16.86047 L 246.86814 16.86047 L 239.45412 16.86047 z M 111.76475 20.401855 L 113.13056 20.457149 L 114.49585 20.51296 L 115.40174 20.818884 L 116.30711 21.124809 L 116.81664 21.418848 L 117.32617 21.712887 L 117.98505 22.216732 L 118.64392 22.72006 L 119.25577 23.462134 L 119.86762 24.204207 L 120.32082 25.11888 L 120.77351 26.03407 L 121.01845 26.939441 L 121.26288 27.844812 L 121.27167 29.486056 L 121.28097 31.127816 L 121.02465 32.079696 L 120.76782 33.032092 L 120.3756 33.836178 L 119.98337 34.64078 L 119.39065 35.427812 L 118.79792 36.214844 L 118.11889 36.762097 L 117.43986 37.309351 L 116.874 37.634395 L 116.30763 37.95944 L 115.40226 38.267432 L 115.40174 38.267432 L 114.49637 38.57594 L 112.9683 38.613147 L 111.44023 38.650354 L 110.65371 38.475171 L 109.8672 38.299471 L 109.18197 38.012667 L 108.49674 37.725863 L 107.76138 37.238554 L 107.02551 36.750728 L 106.28085 35.976615 L 105.53671 35.202502 L 105.07059 34.410303 L 104.60498 33.618103 L 104.32231 32.769059 L 104.03964 31.920015 L 103.92027 31.184143 L 103.8009 30.448271 L 103.804 29.486056 L 103.8071 28.524357 L 103.96161 27.675313 L 104.11561 26.82627 L 104.39569 26.063009 L 104.67578 25.299748 L 105.05819 24.648108 L 105.44059 23.996468 L 106.40281 23.024434 L 107.36502 22.052401 L 108.04405 21.660693 L 108.72308 21.269503 L 109.28894 21.029207 L 109.85531 20.788395 L 110.80977 20.595125 L 111.76475 20.401855 z M 217.39603 20.482471 L 218.39752 20.482471 L 219.39901 20.482471 L 220.24806 20.645251 L 221.09762 20.807515 L 221.94924 21.162016 L 222.80139 21.517033 L 223.70262 22.187793 L 224.60438 22.85907 L 225.04828 23.397021 L 225.4927 23.934973 L 225.85236 24.46569 L 226.21203 24.996407 L 226.55775 25.860437 L 226.90346 26.724467 L 227.07089 27.593665 L 227.23781 28.462862 L 227.23781 29.59561 L 227.23833 30.728357 L 227.11017 31.350024 L 226.98201 31.971692 L 226.80786 32.594393 L 226.63423 33.217094 L 226.35001 33.782951 L 226.06579 34.348808 L 225.63791 34.979777 L 225.21054 35.610746 L 224.71962 36.113558 L 224.22921 36.616886 L 223.83337 36.917126 L 223.43701 37.217367 L 222.74299 37.609074 L 222.04846 38.000264 L 221.32758 38.232292 L 220.60721 38.464319 L 220.00724 38.585758 L 219.4078 38.706681 L 218.30967 38.69738 L 217.21155 38.687561 L 216.36405 38.46897 L 215.51604 38.250378 L 214.79102 37.910864 L 214.066 37.571867 L 213.35235 37.062337 L 212.6387 36.552808 L 212.016 35.819002 L 211.3933 35.085197 L 211.00262 34.37723 L 210.61195 33.669779 L 210.33186 32.87758 L 210.05178 32.084863 L 209.90863 31.277677 L 209.76549 30.469975 L 209.82802 29.07006 L 209.89055 27.670146 L 210.07555 26.993701 L 210.26055 26.31674 L 210.55976 25.635128 L 210.85845 24.953516 L 211.42275 24.125142 L 211.98758 23.296252 L 212.72862 22.617224 L 213.46966 21.938196 L 214.60499 21.379574 L 215.7398 20.820951 L 216.56818 20.651969 L 217.39603 20.482471 z " />
  </g>
</svg>
